<svg width="111" height="101" viewBox="0 0 111 101" fill="none" xmlns="http://www.w3.org/2000/svg">
<path d="M94.6479 88.375L90.2135 75.9078C87.5343 76.9599 84.809 77.9331 82.0375 78.8273C79.2659 79.7216 76.4944 80.4318 73.7228 80.9578L78.1573 88.375H94.6479ZM88.8277 63.125V37.875C85.1323 35.9812 80.6286 34.4557 75.3165 33.2984C70.0044 32.1411 64.5768 31.5625 59.0337 31.5625C49.8876 31.5625 41.2266 33.2984 33.0506 36.7703C24.8745 40.2422 18.5693 44.8187 14.1348 50.5C18.5693 56.1812 24.8745 60.7578 33.0506 64.2297C41.2266 67.7016 49.8876 69.4375 59.0337 69.4375C64.5768 69.4375 70.0044 68.8589 75.3165 67.7016C80.6286 66.5443 85.1323 65.0187 88.8277 63.125ZM61.1124 50.5C61.1124 53.9719 60.0268 56.944 57.8558 59.4164C55.6848 61.8888 53.0749 63.125 50.0262 63.125C46.9775 63.125 44.3677 61.8888 42.1966 59.4164C40.0256 56.944 38.9401 53.9719 38.9401 50.5C38.9401 47.0281 40.0256 44.056 42.1966 41.5836C44.3677 39.1112 46.9775 37.875 50.0262 37.875C53.0749 37.875 55.6848 39.1112 57.8558 41.5836C60.0268 44.056 61.1124 47.0281 61.1124 50.5ZM94.6479 12.625H78.1573L73.7228 20.0422C76.4944 20.5682 79.2659 21.2784 82.0375 22.1727C84.809 23.0669 87.5343 24.0401 90.2135 25.0922L94.6479 12.625ZM0 50.5C6.65169 40.0844 15.1049 32.22 25.3596 26.907C35.6142 21.594 47.5318 18.9375 61.1124 18.9375L68.8727 5.68124C69.8889 3.89271 71.2285 2.4987 72.8914 1.49921C74.5543 0.499733 76.3096 0 78.1573 0L111 0L99.9139 31.4047L99.9139 69.5953L111 101L78.1573 101C76.3096 101 74.5543 100.5 72.8914 99.5008C71.2285 98.5013 69.8889 97.1073 68.8727 95.3187L61.1124 82.0625C47.5318 82.0625 35.6142 79.406 25.3596 74.093C15.1049 68.7799 6.65169 60.9156 0 50.5Z" fill="#E8EAED"/>
</svg>
